<svg xmlns="http://www.w3.org/2000/svg" xmlns:xlink="http://www.w3.org/1999/xlink" width="1634" zoomAndPan="magnify" viewBox="0 0 1225.5 224.249992" height="299" preserveAspectRatio="xMidYMid meet" version="1.0"><defs><g/><clipPath id="5ac14b59d7"><path d="M 1.792969 19 L 1106 19 L 1106 208 L 1.792969 208 Z M 1.792969 19 " clip-rule="nonzero"/></clipPath><clipPath id="f9b468e343"><path d="M 1111.429688 29.257812 L 1216.871094 29.257812 L 1216.871094 183 L 1111.429688 183 Z M 1111.429688 29.257812 " clip-rule="nonzero"/></clipPath><clipPath id="020a6a34bb"><path d="M 1116 29.257812 L 1220.980469 29.257812 L 1220.980469 183 L 1116 183 Z M 1116 29.257812 " clip-rule="nonzero"/></clipPath></defs><g fill="#e609d1" fill-opacity="1"><g transform="translate(-3.792469, 183.718013)"><g><path d="M 111.15625 -33.3125 L 111.15625 0.015625 L 11.953125 0 L 11.96875 -139.1875 L 109.40625 -139.171875 L 109.40625 -105.84375 L 50.203125 -105.859375 L 50.203125 -86.25 L 100.78125 -86.234375 L 100.765625 -55.265625 L 50.1875 -55.28125 L 50.1875 -33.328125 Z M 111.15625 -33.3125 "/></g></g></g><g fill="#e609d1" fill-opacity="1"><g transform="translate(113.241934, 183.730932)"><g><path d="M 39.03125 -139.1875 L 64.3125 -95.265625 L 89.609375 -139.171875 L 130.765625 -139.171875 L 84.296875 -68.59375 L 129.1875 0.015625 L 88.015625 0.015625 L 64.296875 -41.953125 L 40.578125 0 L -0.78125 0 L 44.109375 -68.609375 L -2.34375 -139.1875 Z M 39.03125 -139.1875 "/></g></g></g><g fill="#e609d1" fill-opacity="1"><g transform="translate(241.646511, 183.745106)"><g><path d="M 4.3125 -70.765625 C 4.320312 -79.265625 5.828125 -87.628906 8.828125 -95.859375 C 11.835938 -104.085938 16.25 -111.46875 22.0625 -118 C 27.882812 -124.539062 34.941406 -129.835938 43.234375 -133.890625 C 51.535156 -137.941406 60.976562 -139.96875 71.5625 -139.96875 C 83.976562 -139.957031 94.828125 -137.171875 104.109375 -131.609375 C 113.390625 -126.054688 120.25 -118.707031 124.6875 -109.5625 L 95.484375 -88.78125 C 94.304688 -92.1875 92.769531 -95 90.875 -97.21875 C 88.976562 -99.4375 86.921875 -101.195312 84.703125 -102.5 C 82.484375 -103.8125 80.128906 -104.726562 77.640625 -105.25 C 75.160156 -105.769531 72.875 -106.035156 70.78125 -106.046875 C 65.945312 -106.046875 61.796875 -104.96875 58.328125 -102.8125 C 54.867188 -100.65625 51.992188 -97.84375 49.703125 -94.375 C 47.421875 -90.914062 45.753906 -87 44.703125 -82.625 C 43.660156 -78.25 43.132812 -73.90625 43.125 -69.59375 C 43.125 -64.757812 43.742188 -60.117188 44.984375 -55.671875 C 46.222656 -51.234375 48.050781 -47.3125 50.46875 -43.90625 C 52.894531 -40.507812 55.835938 -37.796875 59.296875 -35.765625 C 62.765625 -33.742188 66.71875 -32.734375 71.15625 -32.734375 C 73.375 -32.722656 75.660156 -33.007812 78.015625 -33.59375 C 80.367188 -34.1875 82.625 -35.171875 84.78125 -36.546875 C 86.9375 -37.921875 88.894531 -39.6875 90.65625 -41.84375 C 92.425781 -44 93.832031 -46.644531 94.875 -49.78125 L 126.046875 -31.15625 C 124.085938 -26.0625 121.113281 -21.488281 117.125 -17.4375 C 113.144531 -13.382812 108.601562 -9.984375 103.5 -7.234375 C 98.40625 -4.492188 92.984375 -2.40625 87.234375 -0.96875 C 81.484375 0.46875 75.863281 1.179688 70.375 1.171875 C 60.707031 1.171875 51.820312 -0.882812 43.71875 -5 C 35.613281 -9.113281 28.648438 -14.566406 22.828125 -21.359375 C 17.015625 -28.160156 12.472656 -35.875 9.203125 -44.5 C 5.941406 -53.125 4.3125 -61.878906 4.3125 -70.765625 Z M 4.3125 -70.765625 "/></g></g></g><g fill="#e609d1" fill-opacity="1"><g transform="translate(370.051088, 183.759279)"><g><path d="M 11.953125 0 L 11.96875 -139.1875 L 50.203125 -139.1875 L 50.1875 -33.328125 L 113.3125 -33.3125 L 113.3125 0.015625 Z M 11.953125 0 "/></g></g></g><g fill="#e609d1" fill-opacity="1"><g transform="translate(485.321151, 183.772003)"><g><path d="M 72.53125 -32.734375 C 76.976562 -32.722656 80.769531 -33.695312 83.90625 -35.65625 C 87.039062 -37.625 89.585938 -40.207031 91.546875 -43.40625 C 93.503906 -46.601562 94.941406 -50.289062 95.859375 -54.46875 C 96.773438 -58.65625 97.234375 -63.035156 97.234375 -67.609375 L 97.25 -139.171875 L 135.46875 -139.171875 L 135.453125 -67.609375 C 135.453125 -57.941406 134.210938 -48.894531 131.734375 -40.46875 C 129.253906 -32.039062 125.398438 -24.753906 120.171875 -18.609375 C 114.941406 -12.460938 108.375 -7.625 100.46875 -4.09375 C 92.5625 -0.570312 83.25 1.179688 72.53125 1.171875 C 61.425781 1.171875 51.921875 -0.6875 44.015625 -4.40625 C 36.109375 -8.132812 29.601562 -13.132812 24.5 -19.40625 C 19.40625 -25.675781 15.679688 -32.960938 13.328125 -41.265625 C 10.972656 -49.566406 9.796875 -58.351562 9.796875 -67.625 L 9.8125 -139.1875 L 48.046875 -139.1875 L 48.03125 -67.625 C 48.03125 -63.050781 48.484375 -58.640625 49.390625 -54.390625 C 50.304688 -50.148438 51.742188 -46.425781 53.703125 -43.21875 C 55.671875 -40.019531 58.1875 -37.472656 61.25 -35.578125 C 64.320312 -33.679688 68.082031 -32.734375 72.53125 -32.734375 Z M 72.53125 -32.734375 "/></g></g></g><g fill="#e609d1" fill-opacity="1"><g transform="translate(630.584942, 183.788037)"><g><path d="M 96.265625 -93.6875 C 92.347656 -96.039062 88.296875 -98.128906 84.109375 -99.953125 C 80.578125 -101.523438 76.625 -103 72.25 -104.375 C 67.875 -105.75 63.59375 -106.4375 59.40625 -106.4375 C 56.007812 -106.4375 53.296875 -105.914062 51.265625 -104.875 C 49.242188 -103.832031 48.234375 -102.066406 48.234375 -99.578125 C 48.234375 -97.753906 48.820312 -96.253906 50 -95.078125 C 51.175781 -93.898438 52.875 -92.820312 55.09375 -91.84375 C 57.320312 -90.863281 60.035156 -89.914062 63.234375 -89 C 66.429688 -88.082031 70.054688 -86.96875 74.109375 -85.65625 C 80.515625 -83.6875 86.296875 -81.523438 91.453125 -79.171875 C 96.617188 -76.828125 101.03125 -74.050781 104.6875 -70.84375 C 108.34375 -67.644531 111.148438 -63.757812 113.109375 -59.1875 C 115.066406 -54.613281 116.046875 -49.054688 116.046875 -42.515625 C 116.046875 -34.160156 114.507812 -27.140625 111.4375 -21.453125 C 108.375 -15.765625 104.328125 -11.222656 99.296875 -7.828125 C 94.265625 -4.429688 88.578125 -1.984375 82.234375 -0.484375 C 75.898438 1.015625 69.53125 1.765625 63.125 1.765625 C 58.03125 1.765625 52.800781 1.367188 47.4375 0.578125 C 42.082031 -0.203125 36.757812 -1.3125 31.46875 -2.75 C 26.175781 -4.1875 21.078125 -5.882812 16.171875 -7.84375 C 11.273438 -9.800781 6.734375 -12.019531 2.546875 -14.5 L 19.015625 -48.03125 C 23.585938 -45.15625 28.359375 -42.601562 33.328125 -40.375 C 37.503906 -38.414062 42.238281 -36.648438 47.53125 -35.078125 C 52.832031 -33.515625 58.222656 -32.734375 63.703125 -32.734375 C 67.890625 -32.734375 70.800781 -33.285156 72.4375 -34.390625 C 74.070312 -35.492188 74.890625 -36.960938 74.890625 -38.796875 C 74.890625 -40.753906 74.070312 -42.421875 72.4375 -43.796875 C 70.800781 -45.179688 68.546875 -46.394531 65.671875 -47.4375 C 62.796875 -48.488281 59.492188 -49.535156 55.765625 -50.578125 C 52.046875 -51.617188 48.09375 -52.859375 43.90625 -54.296875 C 37.769531 -56.390625 32.476562 -58.644531 28.03125 -61.0625 C 23.59375 -63.476562 19.9375 -66.222656 17.0625 -69.296875 C 14.1875 -72.367188 12.0625 -75.863281 10.6875 -79.78125 C 9.320312 -83.707031 8.640625 -88.21875 8.640625 -93.3125 C 8.640625 -101.019531 10.046875 -107.8125 12.859375 -113.6875 C 15.671875 -119.570312 19.492188 -124.472656 24.328125 -128.390625 C 29.160156 -132.316406 34.679688 -135.289062 40.890625 -137.3125 C 47.097656 -139.34375 53.664062 -140.359375 60.59375 -140.359375 C 65.6875 -140.359375 70.648438 -139.863281 75.484375 -138.875 C 80.316406 -137.894531 84.988281 -136.648438 89.5 -135.140625 C 94.007812 -133.640625 98.222656 -132.003906 102.140625 -130.234375 C 106.066406 -128.472656 109.597656 -126.8125 112.734375 -125.25 Z M 96.265625 -93.6875 "/></g></g></g><g fill="#e609d1" fill-opacity="1"><g transform="translate(751.540115, 183.801389)"><g><path d="M 11.953125 0 L 11.96875 -139.1875 L 50.203125 -139.1875 L 50.1875 0 Z M 11.953125 0 "/></g></g></g><g fill="#e609d1" fill-opacity="1"><g transform="translate(813.684054, 183.808248)"><g><path d="M 38.640625 -139.1875 L 65.859375 -48.03125 L 92.734375 -139.171875 L 132.921875 -139.171875 L 81.75 0.015625 L 49.984375 0 L -1.75 -139.1875 Z M 38.640625 -139.1875 "/></g></g></g><g fill="#e609d1" fill-opacity="1"><g transform="translate(945.029201, 183.822747)"><g><path d="M 70.96875 1.171875 C 61.03125 1.171875 51.976562 -0.851562 43.8125 -4.90625 C 35.644531 -8.957031 28.648438 -14.28125 22.828125 -20.875 C 17.015625 -27.476562 12.507812 -35.023438 9.3125 -43.515625 C 6.113281 -52.015625 4.515625 -60.769531 4.515625 -69.78125 C 4.523438 -78.9375 6.191406 -87.757812 9.515625 -96.25 C 12.847656 -104.75 17.519531 -112.234375 23.53125 -118.703125 C 29.550781 -125.171875 36.644531 -130.332031 44.8125 -134.1875 C 52.976562 -138.039062 61.960938 -139.96875 71.765625 -139.96875 C 81.691406 -139.957031 90.738281 -137.925781 98.90625 -133.875 C 107.082031 -129.820312 114.078125 -124.460938 119.890625 -117.796875 C 125.703125 -111.128906 130.175781 -103.546875 133.3125 -95.046875 C 136.445312 -86.554688 138.007812 -77.867188 138 -68.984375 C 138 -59.835938 136.332031 -51.050781 133 -42.625 C 129.675781 -34.195312 125.070312 -26.742188 119.1875 -20.265625 C 113.300781 -13.796875 106.242188 -8.601562 98.015625 -4.6875 C 89.785156 -0.769531 80.769531 1.179688 70.96875 1.171875 Z M 43.328125 -69.390625 C 43.328125 -64.691406 43.878906 -60.148438 44.984375 -55.765625 C 46.097656 -51.390625 47.832031 -47.503906 50.1875 -44.109375 C 52.539062 -40.710938 55.476562 -37.96875 59 -35.875 C 62.53125 -33.78125 66.648438 -32.734375 71.359375 -32.734375 C 76.191406 -32.722656 80.367188 -33.796875 83.890625 -35.953125 C 87.421875 -38.109375 90.296875 -40.914062 92.515625 -44.375 C 94.742188 -47.84375 96.410156 -51.796875 97.515625 -56.234375 C 98.628906 -60.679688 99.1875 -65.191406 99.1875 -69.765625 C 99.195312 -74.472656 98.613281 -79.015625 97.4375 -83.390625 C 96.257812 -87.773438 94.523438 -91.628906 92.234375 -94.953125 C 89.953125 -98.285156 87.046875 -100.960938 83.515625 -102.984375 C 79.992188 -105.015625 75.878906 -106.035156 71.171875 -106.046875 C 66.335938 -106.046875 62.1875 -105 58.71875 -102.90625 C 55.257812 -100.820312 52.382812 -98.046875 50.09375 -94.578125 C 47.8125 -91.117188 46.113281 -87.195312 45 -82.8125 C 43.894531 -78.4375 43.335938 -73.960938 43.328125 -69.390625 Z M 43.328125 -69.390625 "/></g></g></g><g clip-path="url(#5ac14b59d7)"><path stroke-linecap="butt" transform="matrix(0.747805, 0.0000825444, -0.0000825444, 0.747805, -7.907474, 6.27967)" fill="none" stroke-linejoin="miter" d="M 154.156185 191.456962 L 154.155878 235.998787 L 21.549009 235.997753 L 21.54936 49.885324 L 151.852611 49.881388 L 151.852304 94.428437 L 72.683089 94.426729 L 72.685986 120.670205 L 140.269207 120.667969 L 140.268555 162.080844 L 72.685333 162.077857 L 72.683352 191.455508 Z M 214.212211 49.884952 L 248.005076 108.573839 L 281.863339 49.882708 L 336.904645 49.881856 L 274.75918 144.222106 L 334.788727 235.999742 L 279.747422 236.000594 L 248.002499 179.871056 L 216.322204 236.002372 L 161.024941 235.998028 L 221.060345 144.22281 L 158.914948 49.885832 Z M 339.516104 141.341966 C 339.520075 129.991035 341.524711 118.812263 345.535238 107.805648 C 349.587554 96.799029 355.499604 86.920507 363.26094 78.170084 C 371.027501 69.424883 380.455357 62.340611 391.549732 56.922491 C 402.644107 51.50437 415.274526 48.79714 429.440989 48.795576 C 446.036436 48.793744 460.542846 52.527032 472.96022 59.995441 C 485.377589 67.422061 494.551353 77.236234 500.481511 89.437961 L 461.443233 117.278952 C 459.859972 112.713681 457.791003 108.958125 455.231103 106.012285 C 452.712987 103.024651 449.965101 100.658653 446.976996 98.90907 C 444.03068 97.159482 440.896372 95.942724 437.56885 95.258796 C 434.241322 94.53308 431.190687 94.172987 428.416944 94.173293 C 421.929206 94.174009 416.360984 95.621567 411.712281 98.526414 C 407.105362 101.384244 403.261191 105.140453 400.190214 109.789815 C 397.161022 114.397384 394.941562 119.647369 393.537058 125.534546 C 392.127325 131.379935 391.422777 137.183457 391.423412 142.939888 C 391.424124 149.385838 392.255365 155.591409 393.917136 161.567049 C 395.584126 167.495676 398.01369 172.745148 401.216274 177.31024 C 404.460642 181.833539 408.404877 185.458297 413.054202 188.189738 C 417.708746 190.87939 422.9952 192.221277 428.929235 192.220622 C 431.870134 192.225521 434.920687 191.838636 438.080893 191.070415 C 441.235872 190.260405 444.244532 188.938497 447.106874 187.10469 C 450.005782 185.265655 452.627781 182.919959 454.978095 180.062378 C 457.364971 177.163005 459.245084 173.621181 460.607987 169.43691 L 502.337028 194.33331 C 499.694624 201.119086 495.704451 207.220717 490.37173 212.638202 C 485.033787 218.055687 478.953992 222.60091 472.127124 226.273869 C 465.347267 229.9416 458.091967 232.757934 450.366447 234.717645 C 442.687934 236.640785 435.176472 237.597537 427.842506 237.598347 C 414.914042 237.599774 403.029998 234.848237 392.190375 229.343736 C 381.355975 223.839234 372.051899 216.542861 364.288594 207.454615 C 356.520064 198.366371 350.438631 188.060836 346.044293 176.543234 C 341.69174 164.978615 339.517418 153.2466 339.516104 141.341966 Z M 521.465307 236.000031 L 521.465658 49.882379 L 572.604917 49.881957 L 572.604873 191.452561 L 656.955922 191.453698 L 656.955616 236.000746 Z M 756.638386 192.221014 C 762.567197 192.225583 767.623519 190.91912 771.802129 188.317295 C 775.985959 185.67368 779.375708 182.215268 781.981825 177.952505 C 784.624502 173.642725 786.567142 168.690517 787.804524 163.101105 C 789.041905 157.511693 789.662871 151.666391 789.662198 145.565201 L 789.662083 49.884116 L 840.733436 49.883702 L 840.73355 145.564787 C 840.734977 158.493251 839.069977 170.591344 835.743773 181.85384 C 832.454135 193.121556 827.315167 202.869402 820.316422 211.102602 C 813.317673 219.294014 804.532255 225.761828 793.949719 230.495598 C 783.367184 235.234591 770.930001 237.602265 756.638171 237.598619 C 741.745625 237.600263 729.010159 235.104777 718.426549 230.112163 C 707.889953 225.119543 699.207556 218.444712 692.379359 210.077224 C 685.551157 201.67317 680.561522 191.926442 677.400006 180.831817 C 674.285503 169.737188 672.73279 157.98421 672.731419 145.567661 L 672.731304 49.881352 L 723.865341 49.886155 L 723.865455 145.56724 C 723.866128 151.66843 724.462271 157.555387 725.659107 163.228108 C 726.897732 168.906048 728.815352 173.899619 731.417192 178.20882 C 734.066039 182.471003 737.435652 185.88688 741.531254 188.446003 C 745.626852 190.963337 750.662562 192.221674 756.638386 192.221014 Z M 982.571933 110.686677 C 977.321844 107.526965 971.904639 104.732926 966.315095 102.299335 C 961.618828 100.210404 956.327082 98.246906 950.439858 96.414065 C 944.594422 94.575995 938.879679 93.662492 933.290403 93.663109 C 928.766746 93.658385 925.14163 94.363974 922.409832 95.774653 C 919.719817 97.138316 918.377605 99.48387 918.377972 102.811317 C 918.378246 105.287314 919.146342 107.313995 920.682261 108.891359 C 922.259964 110.42693 924.542845 111.85795 927.530902 113.179197 C 930.513737 114.505668 934.144296 115.785054 938.406908 117.022582 C 942.674739 118.21832 947.517199 119.685624 952.939511 121.434939 C 961.511763 124.04058 969.258712 126.91794 976.169912 130.077469 C 983.081113 133.236997 988.968547 136.966013 993.832215 141.280188 C 998.74289 145.542122 1002.494023 150.728764 1005.09606 156.829668 C 1007.74511 162.930566 1009.067507 170.35841 1009.068472 179.102754 C 1009.064482 190.281305 1006.996966 199.689277 1002.860701 207.326669 C 998.760996 214.922268 993.344771 221.003161 986.601579 225.569351 C 979.905394 230.088524 972.310608 233.354126 963.81722 235.360934 C 955.370845 237.367737 946.856452 238.366389 938.279264 238.367336 C 931.45199 238.368089 924.457502 237.836052 917.290574 236.766 C 910.118428 235.742962 902.993245 234.270687 895.909802 232.3544 C 888.873371 230.432884 882.066742 228.171807 875.495138 225.565945 C 868.92353 222.923517 862.842904 219.936277 857.253261 216.609447 L 879.271099 171.741327 C 885.414508 175.627023 891.792927 179.037344 898.406357 181.982737 C 903.995925 184.630497 910.33244 186.996098 917.415902 189.084765 C 924.499364 191.178655 931.708078 192.222584 939.047267 192.221774 C 944.636542 192.221157 948.522834 191.47375 950.695697 189.984778 C 952.915571 188.490577 954.022762 186.526373 954.022494 184.097389 C 954.02743 181.490801 952.914554 179.270884 950.699536 177.437637 C 948.521083 175.604387 945.512097 173.980172 941.67258 172.575442 C 937.833062 171.165488 933.418946 169.760821 928.425008 168.350994 C 923.472859 166.941163 918.207265 165.280632 912.617777 163.358956 C 904.379819 160.586122 897.275361 157.5781 891.304403 154.33489 C 885.375234 151.091675 880.485519 147.420008 876.645704 143.325113 C 872.80589 139.230217 869.968947 134.555388 868.134877 129.311074 C 866.300806 124.061537 865.380782 118.023131 865.385252 111.195857 C 865.384118 100.915769 867.258397 91.847354 871.013315 83.995835 C 874.768227 76.102528 879.870981 69.530648 886.311128 64.285421 C 892.798287 59.034965 900.199721 55.069419 908.520654 52.378335 C 916.841583 49.650686 925.627564 48.281127 934.889046 48.285328 C 941.674531 48.284579 948.308604 48.947247 954.791265 50.268108 C 961.27915 51.588968 967.526785 53.254614 973.544619 55.25982 C 979.562453 57.265027 985.19376 59.46355 990.443764 61.850166 C 995.68854 64.200217 1000.405715 66.419736 1004.584844 68.508723 Z M 1031.609458 236.00118 L 1031.609808 49.883528 L 1082.749068 49.883106 L 1082.748717 236.000759 Z M 1150.358408 49.886091 L 1186.775281 171.743949 L 1222.679454 49.883331 L 1276.440972 49.882621 L 1208.026844 236.002601 L 1165.527456 236.002069 L 1096.340932 49.881606 Z M 1369.264562 237.598903 C 1355.954773 237.600372 1343.835671 234.89065 1332.912479 229.469736 C 1321.989287 224.054046 1312.643441 216.930057 1304.880164 208.097769 C 1297.111663 199.265481 1291.077265 189.17411 1286.766524 177.823655 C 1282.497568 166.431407 1280.365037 154.720281 1280.368932 142.685056 C 1280.367581 130.440886 1282.586318 118.640479 1287.025144 107.294282 C 1291.500535 95.942857 1297.752106 85.938931 1305.774634 77.27728 C 1313.83895 68.615625 1323.334732 61.703725 1334.256756 56.54158 C 1345.17878 51.379436 1357.187602 48.797641 1370.288445 48.796195 C 1383.556445 48.794731 1395.654653 51.504455 1406.577845 56.925369 C 1417.501036 62.341059 1426.846888 69.512061 1434.610174 78.427927 C 1442.420473 87.343787 1448.413089 97.503071 1452.593244 108.895329 C 1456.820407 120.240569 1458.932031 131.847224 1458.933341 143.71007 C 1458.929469 155.95424 1456.689833 167.712861 1452.209208 178.975484 C 1447.775596 190.238103 1441.607598 200.200231 1433.715662 208.861867 C 1425.865514 217.523499 1416.43242 224.477181 1405.426828 229.728136 C 1394.416012 234.973868 1382.365405 237.597457 1369.264562 237.598903 Z M 1332.270897 143.196465 C 1332.27159 149.470035 1333.019239 155.550249 1334.513845 161.437106 C 1336.003222 167.282175 1338.307414 172.489871 1341.42642 177.054973 C 1344.581987 181.578281 1348.505332 185.244831 1353.20168 188.065068 C 1357.934587 190.838289 1363.461332 192.221939 1369.776691 192.221242 C 1376.217417 192.220531 1381.806535 190.793865 1386.544045 187.936021 C 1391.281549 185.031164 1395.120498 181.28018 1398.066112 176.67262 C 1401.05351 172.018043 1403.29386 166.73149 1404.787161 160.797291 C 1406.280458 154.826526 1407.026769 148.787936 1407.026096 142.686746 C 1407.025399 136.371387 1406.235961 130.291178 1404.657782 124.446119 C 1403.079602 118.601061 1400.754523 113.456049 1397.682544 109.021533 C 1394.610559 104.540005 1390.702894 100.957031 1385.969996 98.267389 C 1381.273658 95.535953 1375.793928 94.173192 1369.520358 94.173885 C 1363.037843 94.1746 1357.469618 95.580369 1352.815681 98.396415 C 1348.208753 101.170667 1344.3698 104.879862 1341.2936 109.534449 C 1338.264408 114.142018 1336.003159 119.386784 1334.509853 125.279195 C 1333.016543 131.124593 1332.270224 137.095275 1332.270897 143.196465 Z M 1332.270897 143.196465 " stroke="#e6affc" stroke-width="5.406926" stroke-opacity="1" stroke-miterlimit="4"/></g><g clip-path="url(#f9b468e343)"><path fill="#e6affc" d="M 1149.058594 182.132812 C 1149.097656 182.152344 1149.132812 182.171875 1149.167969 182.191406 C 1149.167969 182.191406 1121.917969 184.519531 1113.71875 148.738281 C 1111.667969 139.789062 1111.417969 130.546875 1112.734375 121.472656 C 1115.035156 105.5625 1124.847656 95.019531 1124.847656 95.019531 C 1121.457031 123.675781 1152.515625 133.054688 1152.515625 133.054688 C 1151.585938 131.96875 1151.074219 131.367188 1150.554688 130.773438 C 1138.378906 116.910156 1129.871094 101.375 1127.84375 83.097656 C 1126.070312 67.078125 1129.460938 52.222656 1140.320312 39.546875 C 1143.429688 35.914062 1147.265625 32.863281 1150.773438 29.542969 C 1127.871094 63.121094 1181.582031 93.355469 1181.582031 93.355469 C 1180.347656 91.886719 1174.894531 82.597656 1174.554688 82.015625 C 1172.023438 77.046875 1170.03125 71.875 1169.203125 66.300781 C 1168.371094 60.71875 1168.324219 55.152344 1171.773438 49.671875 C 1171.644531 58.28125 1172.488281 60.847656 1177.722656 67.554688 C 1180.804688 71.5 1184.078125 75.304688 1187.09375 79.292969 C 1187.550781 79.902344 1187.996094 80.511719 1188.4375 81.125 C 1209.78125 113.144531 1199.136719 139.675781 1199.136719 139.675781 C 1209.472656 125.898438 1212.925781 113.113281 1212.925781 113.113281 C 1215.480469 120.375 1216.628906 127.425781 1216.714844 134.652344 C 1216.867188 147.109375 1214.144531 158.761719 1206.003906 168.785156 C 1201.085938 174.84375 1194.808594 179.027344 1186.351562 181.21875 C 1196.300781 170.472656 1204.273438 159.511719 1203.675781 144.796875 C 1200.773438 147.859375 1194.945312 152.699219 1189.71875 155.980469 C 1187.488281 157.382812 1184.515625 156.015625 1184.273438 153.460938 C 1182.074219 130.121094 1175.21875 110.425781 1153.628906 97.777344 C 1154.117188 99.535156 1154.359375 100.457031 1154.632812 101.367188 C 1156.511719 107.609375 1158.628906 113.792969 1160.222656 120.101562 C 1162.335938 128.449219 1164.050781 136.898438 1162.292969 145.554688 C 1161.089844 151.464844 1157.707031 154.113281 1151.488281 154.453125 C 1144.101562 154.859375 1137.835938 152.441406 1132.378906 147.792969 C 1131.429688 146.984375 1130.488281 146.167969 1129.167969 145.027344 C 1133.1875 172.511719 1147.726562 181.371094 1149.058594 182.132812 Z M 1149.058594 182.132812 " fill-opacity="1" fill-rule="nonzero"/></g><g clip-path="url(#020a6a34bb)"><path fill="#e609d1" d="M 1153.167969 182.132812 C 1153.207031 182.152344 1153.242188 182.171875 1153.277344 182.191406 C 1153.277344 182.191406 1126.027344 184.519531 1117.828125 148.738281 C 1115.777344 139.789062 1115.527344 130.546875 1116.84375 121.472656 C 1119.144531 105.5625 1128.957031 95.019531 1128.957031 95.019531 C 1125.566406 123.675781 1156.625 133.054688 1156.625 133.054688 C 1155.695312 131.96875 1155.183594 131.367188 1154.664062 130.773438 C 1142.488281 116.910156 1133.980469 101.375 1131.957031 83.097656 C 1130.179688 67.078125 1133.570312 52.222656 1144.429688 39.546875 C 1147.539062 35.914062 1151.375 32.863281 1154.882812 29.542969 C 1131.980469 63.121094 1185.691406 93.355469 1185.691406 93.355469 C 1184.457031 91.886719 1179.003906 82.597656 1178.664062 82.015625 C 1176.132812 77.046875 1174.144531 71.875 1173.3125 66.300781 C 1172.480469 60.71875 1172.433594 55.152344 1175.882812 49.671875 C 1175.753906 58.28125 1176.597656 60.847656 1181.832031 67.554688 C 1184.914062 71.5 1188.1875 75.304688 1191.203125 79.292969 C 1191.660156 79.902344 1192.105469 80.511719 1192.546875 81.125 C 1213.890625 113.144531 1203.246094 139.675781 1203.246094 139.675781 C 1213.582031 125.898438 1217.035156 113.113281 1217.035156 113.113281 C 1219.589844 120.375 1220.738281 127.425781 1220.828125 134.652344 C 1220.976562 147.109375 1218.253906 158.761719 1210.113281 168.785156 C 1205.195312 174.84375 1198.917969 179.027344 1190.460938 181.21875 C 1200.410156 170.472656 1208.382812 159.511719 1207.785156 144.796875 C 1204.882812 147.859375 1199.054688 152.699219 1193.828125 155.980469 C 1191.597656 157.382812 1188.625 156.015625 1188.382812 153.460938 C 1186.183594 130.121094 1179.328125 110.425781 1157.738281 97.777344 C 1158.226562 99.535156 1158.46875 100.457031 1158.742188 101.367188 C 1160.621094 107.609375 1162.738281 113.792969 1164.335938 120.101562 C 1166.445312 128.449219 1168.160156 136.898438 1166.402344 145.554688 C 1165.199219 151.464844 1161.816406 154.113281 1155.597656 154.453125 C 1148.210938 154.859375 1141.945312 152.441406 1136.488281 147.792969 C 1135.539062 146.984375 1134.597656 146.167969 1133.277344 145.027344 C 1137.300781 172.511719 1151.835938 181.371094 1153.167969 182.132812 Z M 1153.167969 182.132812 " fill-opacity="1" fill-rule="nonzero"/></g></svg>